<svg width="38" height="25" viewBox="0 0 38 25" fill="none" xmlns="http://www.w3.org/2000/svg">
<path opacity="0.2" d="M9.6 24.288C6.784 24.288 4.61867 23.2853 3.104 21.28C1.61067 19.2747 0.864 16.3733 0.864 12.576C0.864 8.84267 1.61067 5.984 3.104 4C4.61867 1.99467 6.784 0.991999 9.6 0.991999C12.416 0.991999 14.5707 1.99467 16.064 4C17.5787 5.984 18.336 8.84267 18.336 12.576C18.336 16.3733 17.5787 19.2747 16.064 21.28C14.5707 23.2853 12.416 24.288 9.6 24.288ZM9.6 19.776C10.624 19.776 11.36 19.2213 11.808 18.112C12.256 16.9813 12.48 15.136 12.48 12.576C12.48 10.08 12.256 8.27733 11.808 7.168C11.36 6.05867 10.624 5.504 9.6 5.504C8.576 5.504 7.84 6.05867 7.392 7.168C6.944 8.27733 6.72 10.08 6.72 12.576C6.72 15.136 6.944 16.9813 7.392 18.112C7.84 19.2213 8.576 19.776 9.6 19.776ZM21.0115 24V19.584L28.4355 11.84C29.1182 11.1147 29.6302 10.4213 29.9715 9.76C30.3342 9.07733 30.5155 8.416 30.5155 7.776C30.5155 7.02933 30.2915 6.47467 29.8435 6.112C29.3955 5.74933 28.7448 5.568 27.8915 5.568C26.9955 5.568 26.0462 5.74933 25.0435 6.112C24.0408 6.45333 23.0488 6.95467 22.0675 7.616L20.1795 3.36C21.0968 2.61333 22.2808 2.02667 23.7315 1.6C25.2035 1.152 26.6968 0.927999 28.2115 0.927999C29.8542 0.927999 31.2835 1.19467 32.4995 1.728C33.7368 2.24 34.6862 2.98667 35.3475 3.968C36.0302 4.928 36.3715 6.05867 36.3715 7.36C36.3715 8.704 36.1048 9.92 35.5715 11.008C35.0595 12.0747 34.1742 13.2693 32.9155 14.592L26.8675 20.768L26.0355 19.232H37.0755V24H21.0115Z" fill="white"/>
</svg>
