<svg width="24" height="24" viewBox="0 0 24 24" fill="none" xmlns="http://www.w3.org/2000/svg">
<path d="M12 23.7284L5.636 17.3644C4.37734 16.1057 3.52019 14.5021 3.17293 12.7563C2.82567 11.0104 3.00391 9.20084 3.6851 7.55631C4.36629 5.91178 5.51984 4.50618 6.99988 3.51725C8.47992 2.52833 10.22 2.00049 12 2.00049C13.78 2.00049 15.5201 2.52833 17.0001 3.51725C18.4802 4.50618 19.6337 5.91178 20.3149 7.55631C20.9961 9.20084 21.1743 11.0104 20.8271 12.7563C20.4798 14.5021 19.6227 16.1057 18.364 17.3644L12 23.7284ZM16.95 15.9504C17.9289 14.9714 18.5955 13.7241 18.8656 12.3663C19.1356 11.0084 18.9969 9.60101 18.4671 8.32197C17.9373 7.04293 17.04 5.94972 15.8889 5.18058C14.7378 4.41144 13.3844 4.00092 12 4.00092C10.6156 4.00092 9.26222 4.41144 8.11109 5.18058C6.95996 5.94972 6.06275 7.04293 5.53292 8.32197C5.00308 9.60101 4.86442 11.0084 5.13445 12.3663C5.40449 13.7241 6.07111 14.9714 7.05 15.9504L12 20.9004L16.95 15.9504ZM12 13.0004C11.4696 13.0004 10.9609 12.7897 10.5858 12.4146C10.2107 12.0396 10 11.5308 10 11.0004C10 10.47 10.2107 9.96127 10.5858 9.5862C10.9609 9.21112 11.4696 9.00041 12 9.00041C12.5304 9.00041 13.0391 9.21112 13.4142 9.5862C13.7893 9.96127 14 10.47 14 11.0004C14 11.5308 13.7893 12.0396 13.4142 12.4146C13.0391 12.7897 12.5304 13.0004 12 13.0004Z" fill="#289BDE"/>
</svg>
