<svg width="38" height="25" viewBox="0 0 38 25" fill="none" xmlns="http://www.w3.org/2000/svg">
<path opacity="0.2" d="M9.6 24.288C6.784 24.288 4.61867 23.2853 3.104 21.28C1.61067 19.2747 0.864 16.3733 0.864 12.576C0.864 8.84267 1.61067 5.984 3.104 4C4.61867 1.99467 6.784 0.991999 9.6 0.991999C12.416 0.991999 14.5707 1.99467 16.064 4C17.5787 5.984 18.336 8.84267 18.336 12.576C18.336 16.3733 17.5787 19.2747 16.064 21.28C14.5707 23.2853 12.416 24.288 9.6 24.288ZM9.6 19.776C10.624 19.776 11.36 19.2213 11.808 18.112C12.256 16.9813 12.48 15.136 12.48 12.576C12.48 10.08 12.256 8.27733 11.808 7.168C11.36 6.05867 10.624 5.504 9.6 5.504C8.576 5.504 7.84 6.05867 7.392 7.168C6.944 8.27733 6.72 10.08 6.72 12.576C6.72 15.136 6.944 16.9813 7.392 18.112C7.84 19.2213 8.576 19.776 9.6 19.776ZM27.0275 21.216V6.176H29.7795L22.4515 10.368V5.216L29.4915 1.216H33.0115V21.216H27.0275ZM22.1315 24V19.232H37.9395V24H22.1315Z" fill="white"/>
</svg>
