<svg width="32" height="32" viewBox="0 0 32 32" fill="none" xmlns="http://www.w3.org/2000/svg">
<path d="M16 2.66675C23.36 2.66675 29.3334 8.64008 29.3334 16.0001C29.3334 23.3601 23.36 29.3334 16 29.3334C8.64002 29.3334 2.66669 23.3601 2.66669 16.0001C2.66669 8.64008 8.64002 2.66675 16 2.66675ZM16 26.6667C21.8934 26.6667 26.6667 21.8934 26.6667 16.0001C26.6667 10.1067 21.8934 5.33341 16 5.33341C10.1067 5.33341 5.33335 10.1067 5.33335 16.0001C5.33335 21.8934 10.1067 26.6667 16 26.6667ZM17.3334 16.0001H21.3334L16 21.3334L10.6667 16.0001H14.6667V10.6667H17.3334V16.0001Z" fill="white"/>
</svg>