<svg width="133" height="35" viewBox="0 0 133 35" fill="none" xmlns="http://www.w3.org/2000/svg">
<path d="M0 34.6203V0.775391H13.7694C17.2358 0.775391 19.948 1.55179 21.9059 3.1046C23.8638 4.62572 24.8427 6.79648 24.8427 9.61689C24.8427 11.5817 24.2971 13.2454 23.2058 14.6081C22.1466 15.939 20.6702 16.8897 18.7765 17.4601V17.0799C20.9269 17.4918 22.612 18.4267 23.8317 19.8844C25.0513 21.3422 25.6612 23.1802 25.6612 25.3985C25.6612 28.3773 24.6662 30.659 22.6762 32.2435C20.6862 33.828 17.8778 34.6203 14.2509 34.6203H0ZM3.89973 31.3879H13.9138C16.61 31.3879 18.5839 30.8967 19.8357 29.9143C21.1195 28.9319 21.7614 27.3949 21.7614 25.3034C21.7614 23.2436 21.1195 21.6908 19.8357 20.645C18.5518 19.5992 16.5779 19.0763 13.9138 19.0763H3.89973V31.3879ZM3.89973 15.7964H13.1435C15.7433 15.7964 17.6852 15.2894 18.9691 14.2753C20.285 13.2612 20.943 11.7718 20.943 9.80703C20.943 7.87394 20.3011 6.43205 19.0172 5.48135C17.7333 4.49896 15.7754 4.00776 13.1435 4.00776H3.89973V15.7964Z" fill="white"/>
<path d="M86.1073 35C84.342 35 82.689 34.8573 81.1484 34.5721C79.6077 34.2552 78.1795 33.7799 76.8635 33.1461C75.5475 32.4806 74.36 31.6725 73.3008 30.7218L74.7933 27.7271C76.5265 29.1532 78.2597 30.1672 79.9929 30.7693C81.7582 31.3715 83.8124 31.6725 86.1554 31.6725C88.8836 31.6725 91.002 31.1496 92.5106 30.1039C94.0191 29.0264 94.7734 27.5211 94.7734 25.588C94.7734 24.4155 94.3882 23.4807 93.6179 22.7835C92.8797 22.0546 91.8526 21.4842 90.5366 21.0722C89.2528 20.6286 87.7924 20.2166 86.1554 19.8363C84.5185 19.4877 82.9618 19.0916 81.4854 18.6479C80.009 18.1726 78.693 17.5863 77.5375 16.8891C76.4141 16.192 75.5315 15.3047 74.8896 14.2272C74.2476 13.1497 73.9267 11.8029 73.9267 10.1867C73.9267 8.25364 74.4402 6.55823 75.4673 5.10049C76.4944 3.61106 77.9387 2.45438 79.8003 1.63044C81.6619 0.806501 83.8605 0.394531 86.3962 0.394531C87.9689 0.394531 89.4774 0.568826 90.9218 0.917414C92.3661 1.23431 93.6981 1.70966 94.9178 2.34346C96.1696 2.97726 97.2769 3.75367 98.2398 4.67267L96.6992 7.66737C95.1264 6.30471 93.5055 5.30647 91.8365 4.67267C90.1675 4.03888 88.3541 3.72198 86.3962 3.72198C83.7322 3.72198 81.6459 4.27655 80.1373 5.3857C78.6288 6.49485 77.8745 8.04765 77.8745 10.0441C77.8745 11.28 78.2116 12.2783 78.8856 13.0388C79.5596 13.7994 80.5065 14.4173 81.7261 14.8927C82.9458 15.3363 84.342 15.7483 85.9147 16.1286C87.5837 16.5089 89.1886 16.9208 90.7292 17.3645C92.2698 17.8082 93.6339 18.3627 94.8215 19.0282C96.0412 19.662 97.0041 20.5018 97.7102 21.5476C98.4163 22.5616 98.7694 23.8609 98.7694 25.4454C98.7694 27.3785 98.2558 29.0581 97.2287 30.4841C96.2017 31.9102 94.7413 33.0193 92.8476 33.8116C90.9539 34.6038 88.7071 35 86.1073 35Z" fill="white"/>
<path d="M111.334 34.6203V0.775391H132.999V4.00776H115.234V15.7964H132.036V19.0763H115.234V31.3879H132.999V34.6203H111.334Z" fill="white"/>
<path fill-rule="evenodd" clip-rule="evenodd" d="M49.9256 0L62.9648 14.0444V34.6211H58.9527V15.5853L49.9256 5.86222L40.8984 15.5853V34.6211H36.8864V14.0444L49.9256 0Z" fill="#329FDF"/>
</svg>
