<svg width="40" height="40" viewBox="0 0 40 40" fill="none" xmlns="http://www.w3.org/2000/svg">
<path d="M7.63833 28.8678C5.92167 27.0445 5 24.9995 5 21.6845C5 15.8512 9.095 10.6228 15.05 8.03784L16.5383 10.3345C10.98 13.3412 9.89333 17.2428 9.46 19.7028C10.355 19.2395 11.5267 19.0778 12.675 19.1845C15.6817 19.4628 18.0517 21.9312 18.0517 24.9995C18.0517 26.5466 17.4371 28.0303 16.3431 29.1243C15.2492 30.2183 13.7654 30.8328 12.2183 30.8328C10.43 30.8328 8.72 30.0162 7.63833 28.8678ZM24.305 28.8678C22.5883 27.0445 21.6667 24.9995 21.6667 21.6845C21.6667 15.8512 25.7617 10.6228 31.7167 8.03784L33.205 10.3345C27.6467 13.3412 26.56 17.2428 26.1267 19.7028C27.0217 19.2395 28.1933 19.0778 29.3417 19.1845C32.3483 19.4628 34.7183 21.9312 34.7183 24.9995C34.7183 26.5466 34.1037 28.0303 33.0098 29.1243C31.9158 30.2183 30.4321 30.8328 28.885 30.8328C27.0967 30.8328 25.3867 30.0162 24.305 28.8678Z" fill="#55AFE1"/>
</svg>
